<svg width="188" height="71" viewBox="0 0 188 71" fill="none" xmlns="http://www.w3.org/2000/svg">
<path d="M187.102 0H0.897949V70.8299H187.102V0Z" fill="#000B8C"/>
<path d="M52.1756 22.545C47.5585 21.9207 42.9112 21.5451 38.2538 21.42C41.4499 18.1614 44.4656 14.7307 47.2875 11.1431C43.6145 13.8264 40.0882 16.7049 36.7238 19.7662C36.3357 11.1712 35.4807 5.0625 35.4807 5.0625C35.4807 5.0625 34.5975 11.16 34.2375 19.7437C30.869 16.6885 27.3409 13.8138 23.6682 11.1319C26.4701 14.707 29.4652 18.1265 32.64 21.375C27.9919 21.4118 23.3531 21.7991 18.7632 22.5337C23.3326 23.2662 27.9506 23.6536 32.5782 23.6925C29.3378 26.8712 26.3547 30.3019 23.6569 33.9525C27.3362 31.4101 30.8152 28.5893 34.0632 25.515C33.948 32.4589 34.4165 39.4002 35.4638 46.2656C36.5267 39.4054 37.0065 32.4674 36.8982 25.5262C40.1482 28.6005 43.629 31.4212 47.31 33.9637C44.5956 30.3045 41.5996 26.8628 38.3494 23.67C42.982 23.5339 47.6044 23.1584 52.1981 22.545H52.1756Z" fill="white"/>
<path d="M57.9976 14.8613V22.4101C58.6562 21.7587 59.4308 21.2359 60.2813 20.8688C61.1137 20.5235 62.0071 20.3495 62.9082 20.3569C63.881 20.3434 64.8456 20.537 65.7379 20.9249C66.6301 21.3129 67.4296 21.8862 68.0832 22.6069C68.8017 23.3764 69.3605 24.2806 69.7274 25.2673C70.0943 26.2541 70.262 27.3038 70.2207 28.3557C70.2491 29.3983 70.0687 30.4361 69.69 31.4079C69.3113 32.3797 68.7421 33.266 68.0157 34.0144C67.3512 34.7335 66.5433 35.3053 65.6442 35.6929C64.7451 36.0804 63.7747 36.2751 62.7957 36.2644C61.9395 36.2723 61.0897 36.1157 60.2925 35.8032C59.4432 35.4501 58.6655 34.9449 57.9976 34.3126V35.9326H54.0601V14.8613H57.9976ZM62.0982 23.8613C61.5304 23.8441 60.9651 23.9441 60.4376 24.1551C59.9102 24.3661 59.4319 24.6835 59.0325 25.0876C58.6238 25.5121 58.3054 26.0151 58.0966 26.5662C57.8878 27.1173 57.7928 27.705 57.8176 28.2938C57.7917 28.8929 57.8859 29.4911 58.0946 30.0533C58.3032 30.6155 58.6221 31.1304 59.0325 31.5676C59.4297 31.9753 59.9073 32.2959 60.4351 32.5089C60.9629 32.722 61.5293 32.8228 62.0982 32.8051C62.6591 32.8168 63.2163 32.7108 63.7337 32.4937C64.2511 32.2767 64.7172 31.9535 65.1019 31.5451C65.5114 31.1147 65.8307 30.607 66.0413 30.0516C66.2519 29.4962 66.3494 28.9043 66.3282 28.3107C66.3493 27.7246 66.2543 27.14 66.0487 26.5908C65.843 26.0415 65.5308 25.5383 65.13 25.1101C64.7413 24.6992 64.2705 24.3747 63.7481 24.1576C63.2258 23.9405 62.6636 23.8357 62.0982 23.8501V23.8613Z" fill="white"/>
<path d="M73.3865 20.7275H77.324V28.04C77.2733 29.036 77.3758 30.0339 77.6278 30.9988C77.8018 31.5234 78.1438 31.9762 78.6009 32.2869C79.093 32.6087 79.6728 32.7698 80.2603 32.7481C80.856 32.7711 81.4446 32.6122 81.9478 32.2925C82.4175 31.9614 82.7653 31.4851 82.9378 30.9369C83.1522 30.0157 83.2355 29.0689 83.1853 28.1244V20.7275H87.1228V27.1569C87.1228 29.8063 86.9034 31.6175 86.4759 32.5963C85.996 33.7248 85.1837 34.6803 84.1472 35.3356C82.951 36.0182 81.5853 36.346 80.2097 36.2806C78.7409 36.3455 77.2883 35.9524 76.0528 35.1556C74.9795 34.3961 74.1882 33.3022 73.8028 32.045C73.499 31.1282 73.3472 29.4463 73.3472 27.0219L73.3865 20.7275Z" fill="white"/>
<path d="M100.534 22.8871L98.1036 25.2496C97.0854 24.3214 96.2192 23.8489 95.3979 23.8489C95.0331 23.8279 94.671 23.9224 94.3629 24.1189C94.2479 24.1892 94.1525 24.2874 94.0856 24.4044C94.0187 24.5215 93.9825 24.6535 93.9804 24.7883C93.9876 25.0006 94.0762 25.2021 94.2279 25.3508C94.5783 25.6455 94.9732 25.8829 95.3979 26.0539L96.8379 26.7402C98.0303 27.2297 99.0958 27.9837 99.9542 28.9452C100.526 29.7063 100.825 30.6374 100.804 31.5889C100.817 32.2295 100.687 32.8651 100.424 33.449C100.16 34.033 99.7688 34.5506 99.2792 34.9639C98.1297 35.9021 96.6714 36.3775 95.1898 36.297C94.1435 36.3262 93.1055 36.1039 92.1629 35.6488C91.2203 35.1936 90.4007 34.5189 89.7729 33.6814L92.1748 31.1277C92.6318 31.6409 93.179 32.066 93.7892 32.382C94.2851 32.6744 94.8453 32.8405 95.4204 32.8658C95.8652 32.8884 96.3047 32.7617 96.6692 32.5058C96.8082 32.4143 96.9235 32.2911 97.0056 32.1464C97.0878 32.0017 97.1344 31.8395 97.1417 31.6733C97.1417 31.1108 96.5792 30.5202 95.4542 29.9858L94.1379 29.3445C91.6067 28.1127 90.3523 26.5714 90.3523 24.7208C90.3469 24.1348 90.4724 23.555 90.7196 23.0237C90.9667 22.4924 91.3294 22.0229 91.7811 21.6496C92.781 20.7787 94.0725 20.3167 95.3979 20.3558C96.3914 20.3519 97.3722 20.5784 98.2634 21.0176C99.1545 21.4568 99.9316 22.0967 100.534 22.8871Z" fill="white"/>
<path d="M105.483 14.4952C105.809 14.4929 106.133 14.5553 106.435 14.6787C106.737 14.8021 107.012 14.984 107.244 15.2141C107.475 15.4441 107.659 15.7177 107.784 16.0191C107.91 16.3205 107.974 16.6437 107.974 16.9702C107.971 17.6192 107.712 18.2407 107.253 18.6991C106.793 19.1575 106.171 19.4156 105.522 19.417C105.192 19.4185 104.865 19.3547 104.56 19.2291C104.255 19.1036 103.978 18.9188 103.745 18.6856C103.511 18.4523 103.327 18.1752 103.201 17.8701C103.076 17.5651 103.012 17.2382 103.013 16.9083C103.011 16.5922 103.075 16.2792 103.2 15.9888C103.325 15.6984 103.508 15.4369 103.739 15.2208C103.966 14.9891 104.237 14.8054 104.537 14.6808C104.837 14.5561 105.158 14.493 105.483 14.4952ZM103.491 20.7277H107.429V35.9151H103.491V20.7277Z" fill="white"/>
<path d="M110.933 20.7273H114.871V22.2967C115.587 21.6825 116.393 21.1816 117.261 20.8117C117.963 20.5313 118.711 20.3862 119.466 20.3842C120.195 20.3678 120.92 20.4994 121.597 20.7711C122.274 21.0428 122.888 21.4489 123.404 21.9648C124.298 22.8592 124.759 24.1754 124.759 25.9023V35.926H120.822V29.2773C120.872 28.0702 120.79 26.8613 120.58 25.6717C120.455 25.1353 120.152 24.6573 119.719 24.316C119.284 23.9939 118.753 23.8292 118.212 23.8492C117.469 23.8313 116.749 24.1084 116.209 24.6198C115.615 25.2012 115.209 25.9479 115.045 26.7629C114.898 27.7797 114.844 28.8076 114.882 29.8342V35.926H110.944L110.933 20.7273Z" fill="white"/>
<path d="M144.077 29.4128H131.55C131.698 30.4176 132.21 31.3328 132.99 31.9834C133.85 32.6396 134.913 32.9757 135.994 32.934C136.685 32.9449 137.372 32.8194 138.015 32.5646C138.658 32.3098 139.244 31.9307 139.74 31.449L143.008 32.9509C142.261 34.0294 141.25 34.8988 140.072 35.4765C138.797 36.0424 137.411 36.3171 136.016 36.2809C134.924 36.3247 133.834 36.1481 132.812 35.7615C131.789 35.3749 130.855 34.7864 130.065 34.0309C129.316 33.3018 128.725 32.4258 128.331 31.4579C127.936 30.49 127.745 29.451 127.77 28.4059C127.741 27.3413 127.929 26.2819 128.322 25.2924C128.716 24.3029 129.307 23.404 130.06 22.6506C130.813 21.8973 131.711 21.3054 132.701 20.9109C133.69 20.5165 134.749 20.3279 135.814 20.3566C136.921 20.2984 138.027 20.4745 139.061 20.8734C140.095 21.2722 141.033 21.8848 141.814 22.6711C142.595 23.4574 143.202 24.3998 143.593 25.4364C143.985 26.4731 144.154 27.5808 144.088 28.6872L144.077 29.4128ZM140.168 26.4372C139.911 25.602 139.37 24.8833 138.638 24.4065C137.866 23.8802 136.95 23.607 136.016 23.6247C134.994 23.6042 133.991 23.9095 133.153 24.4965C132.524 25.0152 132.033 25.682 131.724 26.4372H140.168Z" fill="white"/>
<path d="M156.812 22.8886L154.382 25.2511C153.397 24.3229 152.497 23.8504 151.693 23.8504C151.328 23.8294 150.966 23.9239 150.658 24.1204C150.544 24.191 150.449 24.2894 150.383 24.4065C150.317 24.5235 150.282 24.6555 150.281 24.7898C150.286 25.0015 150.373 25.203 150.523 25.3523C150.872 25.6489 151.267 25.8864 151.693 26.0554L153.127 26.7417C154.321 27.229 155.387 27.9833 156.244 28.9467C156.897 29.8507 157.192 30.9654 157.07 32.0744C156.949 33.1834 156.42 34.2077 155.585 34.9486C154.441 35.8874 152.986 36.3631 151.507 36.2817C150.451 36.3228 149.401 36.108 148.446 35.6555C147.491 35.2029 146.66 34.5262 146.023 33.6829L148.43 31.1292C148.882 31.646 149.428 32.0718 150.039 32.3836C150.538 32.6739 151.1 32.8398 151.676 32.8673C152.121 32.889 152.56 32.7624 152.925 32.5073C153.063 32.4155 153.178 32.2922 153.259 32.1474C153.34 32.0026 153.385 31.8407 153.392 31.6748C153.392 31.1123 152.829 30.5217 151.704 29.9873L150.388 29.3461C147.853 28.1011 146.585 26.5523 146.585 24.6998C146.584 24.1145 146.712 23.5361 146.959 23.0055C147.205 22.4748 147.566 22.0048 148.014 21.6286C149.028 20.7607 150.331 20.3068 151.665 20.3573C152.657 20.3532 153.637 20.5784 154.528 21.0154C155.427 21.4506 156.209 22.0925 156.812 22.8886Z" fill="white"/>
<path d="M169.71 22.8883L167.28 25.2508C166.273 24.3227 165.395 23.8502 164.585 23.8502C164.221 23.8283 163.858 23.9229 163.55 24.1202C163.436 24.1907 163.341 24.2891 163.276 24.4062C163.21 24.5233 163.175 24.6552 163.174 24.7895C163.176 25.0007 163.261 25.2025 163.41 25.352C163.764 25.645 164.16 25.8821 164.585 26.0552L166.025 26.7414C167.219 27.2262 168.283 27.981 169.136 28.9464C169.71 29.7063 170.009 30.6382 169.985 31.5901C170 32.2309 169.871 32.8669 169.607 33.451C169.343 34.0352 168.952 34.5526 168.461 34.9651C167.313 35.9015 165.857 36.3767 164.377 36.2983C163.331 36.3288 162.292 36.1071 161.349 35.6519C160.407 35.1967 159.587 34.5212 158.96 33.6826L161.362 31.1289C161.815 31.6444 162.361 32.07 162.971 32.3833C163.47 32.6744 164.031 32.8404 164.608 32.867C165.053 32.8896 165.492 32.7629 165.857 32.507C165.996 32.4163 166.111 32.2931 166.192 32.1482C166.274 32.0032 166.319 31.8407 166.324 31.6745C166.324 31.0895 165.761 30.527 164.636 29.987L163.314 29.3458C160.787 28.1008 159.523 26.552 159.523 24.6995C159.518 24.1135 159.643 23.5337 159.89 23.0024C160.137 22.4711 160.5 22.0016 160.952 21.6283C161.96 20.7625 163.257 20.3086 164.585 20.357C165.578 20.3515 166.558 20.5768 167.449 21.0152C168.34 21.4524 169.114 22.0942 169.71 22.8883Z" fill="white"/>
<path d="M19.3762 48.6507H23.6455V65.3176H19.3762V63.5626C18.6455 64.2733 17.7916 64.8452 16.8562 65.2501C15.9855 65.5995 15.0549 65.7753 14.1168 65.7676C13.0394 65.773 11.973 65.552 10.9865 65.1188C10 64.6857 9.11561 64.0501 8.39054 63.2532C7.58958 62.4283 6.96191 61.4513 6.54456 60.3799C6.12722 59.3085 5.92864 58.1644 5.96055 57.0151C5.87478 54.6768 6.71809 52.3997 8.30617 50.6813C9.02552 49.8913 9.90449 49.2632 10.8849 48.8384C11.8653 48.4137 12.9247 48.2021 13.993 48.2176C14.9842 48.2155 15.9662 48.4065 16.8843 48.7801C17.8148 49.1788 18.6606 49.7515 19.3762 50.4676V48.6507ZM14.8762 52.0257C14.2535 52.0109 13.6348 52.1292 13.0615 52.3727C12.4882 52.6162 11.9735 52.9792 11.5518 53.4376C10.6661 54.3939 10.195 55.6618 10.2412 56.9645C10.1997 58.2843 10.6832 59.5667 11.5855 60.5307C12.0043 60.983 12.5139 61.3416 13.081 61.583C13.6482 61.8244 14.2599 61.9431 14.8762 61.9313C15.4987 61.9496 16.1181 61.8363 16.6938 61.5988C17.2696 61.3613 17.7888 61.005 18.2174 60.5532C18.6707 60.0702 19.0227 59.5014 19.2526 58.8802C19.4825 58.259 19.5857 57.598 19.5562 56.9363C19.5842 56.2858 19.48 55.6364 19.2499 55.0273C19.0198 54.4182 18.6686 53.8621 18.2174 53.3926C17.7831 52.9454 17.2598 52.5942 16.6814 52.3617C16.103 52.1292 15.4823 52.0205 14.8593 52.0426L14.8762 52.0257Z" fill="white"/>
<path d="M27.9604 48.6504H32.3029V56.6773C32.2485 57.7753 32.3604 58.8752 32.6348 59.9397C32.8322 60.5149 33.2063 61.0129 33.7036 61.3629C34.2412 61.7081 34.8706 61.8826 35.5092 61.8635C36.1566 61.8823 36.7949 61.7081 37.3429 61.3629C37.8652 61.0113 38.2598 60.5002 38.4679 59.906C38.7061 58.895 38.7971 57.8549 38.7379 56.8179V48.6504H43.0073V55.721C43.0073 58.6235 42.7767 60.6147 42.3042 61.6947C41.7777 62.9308 40.8843 63.9754 39.7448 64.6872C38.4445 65.4316 36.9614 65.796 35.4642 65.7391C33.856 65.8128 32.265 65.3821 30.9136 64.5072C29.7436 63.6764 28.8813 62.4818 28.4611 61.1097C28.1292 60.0972 27.9604 58.2973 27.9604 55.586V48.6504Z" fill="white"/>
<path d="M47.7812 42.5137H52.0505V48.6505H54.5818V52.2393H52.0505V65.3174H47.7812V52.2393H45.5874V48.6505H47.7812V42.5137Z" fill="white"/>
<path d="M64.9372 48.218C66.5301 48.2112 68.0976 48.6162 69.4879 49.3937C70.8677 50.1386 72.0189 51.245 72.8178 52.5943C73.6083 53.9146 74.0226 55.426 74.016 56.9649C74.0194 58.5201 73.6036 60.0474 72.8122 61.3861C72.0325 62.7363 70.8959 63.8456 69.5272 64.5924C68.1287 65.3733 66.5502 65.7748 64.9485 65.7568C63.783 65.7772 62.6255 65.5615 61.5457 65.1226C60.4658 64.6837 59.4861 64.0307 58.6654 63.203C57.815 62.366 57.1459 61.363 56.6996 60.2565C56.2533 59.1499 56.0393 57.9634 56.0709 56.7706C56.1026 55.5779 56.3792 54.4044 56.8836 53.323C57.388 52.2417 58.1093 51.2756 59.0029 50.4849C60.6258 49.0104 62.7445 48.201 64.9372 48.218ZM65.0104 52.1555C64.3871 52.1343 63.7663 52.2429 63.1872 52.4743C62.6082 52.7057 62.0835 53.055 61.6466 53.4999C61.2022 53.9603 60.8547 54.5052 60.6248 55.1023C60.3948 55.6994 60.287 56.3366 60.3079 56.9761C60.281 57.6234 60.3842 58.2695 60.6112 58.8762C60.8383 59.4829 61.1846 60.038 61.6297 60.5086C62.0667 60.9629 62.5948 61.3196 63.1794 61.5551C63.764 61.7907 64.3918 61.8999 65.0216 61.8755C65.648 61.8926 66.2712 61.7801 66.852 61.5448C67.4328 61.3096 67.9587 60.9568 68.3966 60.5086C68.845 60.0418 69.1946 59.4894 69.4246 58.8844C69.6547 58.2794 69.7603 57.6342 69.7353 56.9874C69.761 56.3431 69.6555 55.7003 69.4254 55.0979C69.1953 54.4955 68.8453 53.9462 68.3966 53.483C67.9589 53.0357 67.4326 52.6845 66.8515 52.4521C66.2703 52.2196 65.6471 52.111 65.0216 52.133L65.0104 52.1555Z" fill="white"/>
<path d="M77.4761 48.65H81.7454V50.5681C82.4353 49.8159 83.2718 49.2129 84.2036 48.7962C85.1349 48.4078 86.1365 48.2162 87.1454 48.2337C88.1752 48.2111 89.19 48.4834 90.07 49.0186C90.9501 49.5538 91.6587 50.3296 92.1123 51.2543C92.744 50.3074 93.6035 49.5345 94.612 49.0067C95.6205 48.4789 96.7455 48.2131 97.8835 48.2337C99.0105 48.2123 100.122 48.4961 101.101 49.055C101.965 49.5481 102.659 50.2913 103.092 51.1868C103.497 52.0812 103.694 53.5268 103.694 55.5293V65.3056H99.4248V56.8681C99.4248 54.9781 99.1885 53.7012 98.6992 53.0318C98.4447 52.7017 98.1132 52.4389 97.7338 52.2663C97.3543 52.0937 96.9384 52.0167 96.5223 52.0418C95.8098 52.0328 95.1121 52.2451 94.5254 52.6493C93.9265 53.0662 93.4677 53.6544 93.2092 54.3368C92.8671 55.4564 92.7224 56.627 92.7817 57.7962V65.3112H88.5067V57.2562C88.5537 56.1655 88.4399 55.0738 88.1692 54.0162C87.99 53.4241 87.6301 52.9029 87.1398 52.5256C86.6563 52.1922 86.0787 52.0226 85.4917 52.0418C84.7882 52.034 84.1005 52.2508 83.5286 52.6606C82.9237 53.0944 82.4631 53.6999 82.2067 54.3987C81.8586 55.5365 81.7101 56.7259 81.7679 57.9143V65.3168H77.4986L77.4761 48.65Z" fill="white"/>
<path d="M120.34 48.6502H124.609V65.3171H120.34V63.5621C119.612 64.2739 118.76 64.8459 117.825 65.2496C116.953 65.5985 116.02 65.7743 115.08 65.7671C114.003 65.7725 112.937 65.5515 111.95 65.1183C110.964 64.6852 110.079 64.0496 109.354 63.2527C108.557 62.4282 107.932 61.4527 107.516 60.3834C107.101 59.3141 106.903 58.1725 106.935 57.0258C106.848 54.6884 107.689 52.4114 109.275 50.6921C109.992 49.9021 110.869 49.2738 111.848 48.849C112.826 48.4242 113.884 48.2126 114.951 48.2284C115.946 48.2262 116.932 48.4172 117.853 48.7909C118.782 49.191 119.625 49.7636 120.34 50.4784V48.6502ZM115.84 52.0252C115.218 52.0105 114.6 52.1289 114.028 52.3724C113.455 52.6159 112.942 52.9789 112.521 53.4371C111.671 54.4279 111.206 55.6917 111.211 56.9973C111.216 58.303 111.691 59.5631 112.549 60.5471C112.969 60.9998 113.479 61.3587 114.047 61.6C114.615 61.8414 115.228 61.9599 115.845 61.9477C116.468 61.9642 117.087 61.8501 117.662 61.6127C118.238 61.3753 118.757 61.02 119.187 60.5696C119.637 60.0852 119.987 59.5158 120.214 58.8948C120.442 58.2738 120.544 57.6136 120.514 56.9527C120.543 56.3031 120.44 55.6544 120.212 55.0455C119.984 54.4366 119.635 53.8799 119.187 53.409C118.752 52.96 118.228 52.6066 117.649 52.3712C117.07 52.1359 116.448 52.0238 115.823 52.0421L115.84 52.0252Z" fill="white"/>
<path d="M129.448 42.5137H133.717V48.6505H136.254V52.2393H133.717V65.3174H129.448V52.2393H127.265V48.6505H129.448V42.5137Z" fill="white"/>
<path d="M140.24 41.805C140.599 41.7999 140.955 41.868 141.287 42.0054C141.619 42.1427 141.919 42.3463 142.169 42.6038C142.423 42.8526 142.625 43.1497 142.763 43.4776C142.901 43.8055 142.972 44.1577 142.972 44.5135C142.972 44.8692 142.901 45.2214 142.763 45.5493C142.625 45.8773 142.423 46.1743 142.169 46.4231C141.922 46.6759 141.626 46.8759 141.299 47.0113C140.972 47.1466 140.621 47.2144 140.268 47.2106C139.905 47.2159 139.546 47.1479 139.21 47.0106C138.875 46.8734 138.571 46.6697 138.316 46.4119C138.056 46.1597 137.85 45.8569 137.712 45.5221C137.574 45.1874 137.506 44.8278 137.512 44.4657C137.506 44.1141 137.574 43.7652 137.712 43.4416C137.849 43.118 138.053 42.8268 138.31 42.5869C138.563 42.3338 138.864 42.1342 139.196 41.9999C139.527 41.8656 139.882 41.7993 140.24 41.805ZM138.113 48.6506H142.388V65.3175H138.113V48.6506Z" fill="white"/>
<path d="M154.315 48.218C155.909 48.2097 157.479 48.6148 158.871 49.3937C160.251 50.1386 161.402 51.245 162.201 52.5943C162.992 53.9147 163.408 55.4257 163.405 56.9649C163.407 58.5214 162.987 60.0494 162.19 61.3861C161.415 62.7364 160.282 63.8461 158.916 64.5924C157.515 65.3721 155.935 65.7734 154.331 65.7568C153.166 65.7763 152.009 65.5601 150.929 65.1213C149.849 64.6824 148.87 64.03 148.048 63.203C147.196 62.3672 146.525 61.3648 146.077 60.2583C145.63 59.1518 145.415 57.965 145.446 56.7717C145.477 55.5785 145.754 54.4044 146.258 53.3228C146.763 52.2412 147.486 51.2751 148.38 50.4849C150.003 49.0104 152.122 48.201 154.315 48.218ZM154.393 52.1555C153.771 52.1396 153.153 52.2528 152.577 52.4881C152 52.7234 151.479 53.0755 151.046 53.5224C150.604 53.9835 150.258 54.5288 150.03 55.1259C149.802 55.723 149.696 56.3599 149.719 56.9986C149.69 57.6457 149.792 58.2918 150.018 58.8987C150.244 59.5056 150.59 60.0608 151.035 60.5311C151.468 60.9776 151.989 61.3288 152.565 61.5623C153.142 61.7957 153.761 61.9062 154.382 61.8868C155.009 61.9067 155.633 61.7953 156.214 61.5599C156.795 61.3246 157.321 60.9703 157.757 60.5199C158.206 60.0533 158.557 59.5011 158.788 58.8961C159.019 58.2911 159.125 57.6458 159.101 56.9986C159.128 56.3574 159.024 55.7174 158.797 55.1172C158.57 54.5169 158.224 53.9687 157.78 53.5055C157.341 53.0541 156.814 52.6989 156.231 52.4626C155.648 52.2263 155.022 52.114 154.393 52.133V52.1555Z" fill="white"/>
<path d="M166.835 48.6508H171.11V50.3383C171.903 49.6454 172.797 49.0764 173.76 48.6508C174.533 48.3416 175.357 48.1832 176.19 48.184C176.99 48.1669 177.786 48.3116 178.529 48.6093C179.272 48.907 179.948 49.3516 180.515 49.9165C181.511 50.8952 182.006 52.3465 182.006 54.259V65.2839H177.776V57.9714C177.832 56.6416 177.74 55.3096 177.5 54.0002C177.365 53.4071 177.024 52.881 176.538 52.5146C176.053 52.1482 175.453 51.9652 174.845 51.9977C174.013 51.977 173.206 52.2817 172.595 52.8471C171.939 53.4976 171.5 54.3342 171.335 55.2433C171.172 56.3604 171.11 57.49 171.15 58.6183V65.3121H166.835V48.6508Z" fill="white"/>
</svg>
