<svg xmlns="http://www.w3.org/2000/svg" width="57" height="21.681" viewBox="0 0 57 21.681">
  <g id="Group_17" data-name="Group 17" transform="translate(-48 -13.836)">
    <g id="Group_16" data-name="Group 16">
      <g id="Group_15" data-name="Group 15">
        <rect id="Rectangle_4" data-name="Rectangle 4" width="57" height="21.681" transform="translate(48 13.836)" fill="#000b8c"/>
        <path id="Path_41" data-name="Path 41" d="M63.7,20.737a40.165,40.165,0,0,0-4.261-.341A38.185,38.185,0,0,0,62.2,17.247v0a39.215,39.215,0,0,0-3.232,2.644c-.114-2.631-.381-4.5-.381-4.5H58.58s-.269,1.867-.38,4.5a39.51,39.51,0,0,0-3.23-2.641l0,0a37.951,37.951,0,0,0,2.75,3.135,28.413,28.413,0,0,0-4.249.356,28.231,28.231,0,0,0,4.229.353,26.547,26.547,0,0,0-2.73,3.139,26.988,26.988,0,0,0,3.186-2.578A37.824,37.824,0,0,0,58.581,28a37.757,37.757,0,0,0,.432-6.354A27.013,27.013,0,0,0,62.2,24.23a26.528,26.528,0,0,0-2.743-3.152,41.214,41.214,0,0,0,4.239-.337Z" fill="#fff"/>
        <g id="Group_14" data-name="Group 14">
          <g id="Group_12" data-name="Group 12">
            <path id="Path_42" data-name="Path 42" d="M65.479,18.385V20.7a2.235,2.235,0,0,1,.7-.471,2.045,2.045,0,0,1,.805-.157,2.1,2.1,0,0,1,1.584.688,2.439,2.439,0,0,1,.654,1.759,2.392,2.392,0,0,1-.675,1.733,2.146,2.146,0,0,1-1.6.7,2.056,2.056,0,0,1-.765-.142,2.306,2.306,0,0,1-.7-.463v.5h-1.2V18.385Zm1.255,2.751a1.27,1.27,0,0,0-.939.376,1.337,1.337,0,0,0-.371.981,1.381,1.381,0,0,0,.371,1,1.257,1.257,0,0,0,.939.379,1.225,1.225,0,0,0,.92-.385,1.49,1.49,0,0,0,.008-1.97A1.235,1.235,0,0,0,66.734,21.136Z" fill="#fff"/>
            <path id="Path_43" data-name="Path 43" d="M70.189,20.181h1.2v2.233a2.988,2.988,0,0,0,.093.907.773.773,0,0,0,.3.394.865.865,0,0,0,.507.14.893.893,0,0,0,.511-.139.791.791,0,0,0,.312-.406,3.088,3.088,0,0,0,.076-.856V20.181h1.2v1.968a4.753,4.753,0,0,1-.2,1.665,1.839,1.839,0,0,1-.713.838,2.211,2.211,0,0,1-1.193.291,2.173,2.173,0,0,1-1.273-.339,1.819,1.819,0,0,1-.684-.952,5.687,5.687,0,0,1-.14-1.537Z" fill="#fff"/>
            <path id="Path_44" data-name="Path 44" d="M78.5,20.842l-.744.724a1.285,1.285,0,0,0-.824-.43.528.528,0,0,0-.316.083.244.244,0,0,0-.117.206.251.251,0,0,0,.075.172,1.318,1.318,0,0,0,.357.214l.44.212a2.612,2.612,0,0,1,.955.674,1.377,1.377,0,0,1-.208,1.837,1.823,1.823,0,0,1-1.251.409,2,2,0,0,1-1.663-.8l.734-.782a1.723,1.723,0,0,0,.5.384,1.084,1.084,0,0,0,.5.147.605.605,0,0,0,.381-.109.32.32,0,0,0,.145-.255q0-.268-.521-.524l-.4-.2c-.774-.376-1.158-.849-1.158-1.416a1.212,1.212,0,0,1,.437-.939,1.621,1.621,0,0,1,1.116-.389,1.953,1.953,0,0,1,1.572.774Z" fill="#fff"/>
            <path id="Path_45" data-name="Path 45" d="M80.015,18.273a.748.748,0,0,1,.54.22.74.74,0,0,1,.222.538.721.721,0,0,1-.221.531.765.765,0,0,1-1.3-.55.7.7,0,0,1,.222-.522A.737.737,0,0,1,80.015,18.273Zm-.609,1.908h1.2v4.652h-1.2Z" fill="#fff"/>
            <path id="Path_46" data-name="Path 46" d="M81.684,20.181h1.2v.481a2.8,2.8,0,0,1,.734-.463,1.808,1.808,0,0,1,.674-.131,1.545,1.545,0,0,1,1.611,1.695v3.07H84.7V22.8a5.2,5.2,0,0,0-.074-1.1.755.755,0,0,0-.263-.416.739.739,0,0,0-.462-.143.865.865,0,0,0-.612.236,1.269,1.269,0,0,0-.356.656,5.188,5.188,0,0,0-.05.94v1.865h-1.2Z" fill="#fff"/>
            <path id="Path_47" data-name="Path 47" d="M91.828,22.84H88a1.254,1.254,0,0,0,.44.787,1.428,1.428,0,0,0,.92.29,1.607,1.607,0,0,0,1.146-.455l1,.46a2.344,2.344,0,0,1-.9.773,2.872,2.872,0,0,1-1.243.248,2.5,2.5,0,0,1-1.821-.686,2.323,2.323,0,0,1-.7-1.726A2.4,2.4,0,0,1,89.3,20.068a2.41,2.41,0,0,1,2.533,2.551Zm-1.2-.912a1.138,1.138,0,0,0-.468-.622,1.373,1.373,0,0,0-.8-.241,1.477,1.477,0,0,0-.875.267,1.52,1.52,0,0,0-.437.6Z" fill="#fff"/>
            <path id="Path_48" data-name="Path 48" d="M95.728,20.842l-.745.724a1.281,1.281,0,0,0-.822-.43.536.536,0,0,0-.318.083.245.245,0,0,0-.116.206.251.251,0,0,0,.075.172,1.306,1.306,0,0,0,.359.214l.439.212a2.584,2.584,0,0,1,.953.674,1.3,1.3,0,0,1,.259.809,1.319,1.319,0,0,1-.466,1.028,1.817,1.817,0,0,1-1.25.409,2.007,2.007,0,0,1-1.666-.8l.737-.782a1.645,1.645,0,0,0,.492.384,1.1,1.1,0,0,0,.5.147.611.611,0,0,0,.381-.109.322.322,0,0,0,.144-.255c0-.179-.176-.354-.523-.524l-.4-.2Q92.6,22.248,92.6,21.4a1.222,1.222,0,0,1,.438-.939,1.625,1.625,0,0,1,1.117-.389,1.949,1.949,0,0,1,1.572.774Z" fill="#fff"/>
            <path id="Path_49" data-name="Path 49" d="M99.676,20.842l-.745.724a1.283,1.283,0,0,0-.823-.43.535.535,0,0,0-.317.083.242.242,0,0,0-.042.378,1.372,1.372,0,0,0,.357.214l.442.212a2.561,2.561,0,0,1,.952.674,1.287,1.287,0,0,1,.26.809,1.314,1.314,0,0,1-.467,1.028,1.822,1.822,0,0,1-1.249.409,2,2,0,0,1-1.664-.8l.735-.782a1.671,1.671,0,0,0,.492.384,1.1,1.1,0,0,0,.5.147.61.61,0,0,0,.382-.109.316.316,0,0,0,.144-.255q0-.268-.521-.524l-.4-.2Q96.55,22.248,96.55,21.4a1.209,1.209,0,0,1,.438-.939,1.614,1.614,0,0,1,1.116-.389,1.977,1.977,0,0,1,.876.2A1.954,1.954,0,0,1,99.676,20.842Z" fill="#fff"/>
          </g>
          <g id="Group_13" data-name="Group 13">
            <path id="Path_50" data-name="Path 50" d="M53.657,28.729h1.306v5.1H53.657v-.537a2.559,2.559,0,0,1-.772.513,2.183,2.183,0,0,1-.839.158,2.355,2.355,0,0,1-1.753-.768,2.641,2.641,0,0,1-.74-1.908,2.7,2.7,0,0,1,.715-1.937,2.375,2.375,0,0,1,2.625-.584,2.441,2.441,0,0,1,.764.515Zm-1.384,1.037a1.342,1.342,0,0,0-1.011.422,1.5,1.5,0,0,0-.4,1.081,1.522,1.522,0,0,0,.409,1.095,1.337,1.337,0,0,0,1.007.429,1.356,1.356,0,0,0,1.023-.42,1.523,1.523,0,0,0,.41-1.108,1.473,1.473,0,0,0-.41-1.085A1.367,1.367,0,0,0,52.273,29.766Z" fill="#fff"/>
            <path id="Path_51" data-name="Path 51" d="M56.284,28.729h1.33v2.457a3.31,3.31,0,0,0,.1,1,.882.882,0,0,0,.326.435.965.965,0,0,0,.553.154,1,1,0,0,0,.562-.154.9.9,0,0,0,.34-.447,3.273,3.273,0,0,0,.083-.944v-2.5h1.307v2.163a5.186,5.186,0,0,1-.216,1.83,2,2,0,0,1-.78.92,2.446,2.446,0,0,1-1.311.322,2.366,2.366,0,0,1-1.393-.376,1.988,1.988,0,0,1-.749-1.045,6.175,6.175,0,0,1-.154-1.691Z" fill="#fff"/>
            <path id="Path_52" data-name="Path 52" d="M62.351,26.85h1.308v1.879h.775v1.1h-.775v4H62.351v-4h-.67v-1.1h.67Z" fill="#fff"/>
            <path id="Path_53" data-name="Path 53" d="M67.6,28.595A2.832,2.832,0,0,1,69,28.956a2.657,2.657,0,0,1,1.02.98,2.589,2.589,0,0,1,.366,1.337,2.642,2.642,0,0,1-.368,1.354,2.6,2.6,0,0,1-1.006.982,2.828,2.828,0,0,1-1.4.355,2.651,2.651,0,0,1-1.924-.781,2.662,2.662,0,0,1,.105-3.893A2.669,2.669,0,0,1,67.6,28.595Zm.022,1.2a1.369,1.369,0,0,0-1.023.418,1.464,1.464,0,0,0-.409,1.063,1.485,1.485,0,0,0,.4,1.082,1.366,1.366,0,0,0,1.024.416,1.388,1.388,0,0,0,1.031-.419,1.618,1.618,0,0,0,.006-2.148A1.382,1.382,0,0,0,67.626,29.8Z" fill="#fff"/>
            <path id="Path_54" data-name="Path 54" d="M71.442,28.729h1.307v.587a2.251,2.251,0,0,1,.752-.542,2.222,2.222,0,0,1,.9-.179,1.687,1.687,0,0,1,.885.236,1.707,1.707,0,0,1,.636.689,2.09,2.09,0,0,1,1.767-.925,1.9,1.9,0,0,1,.984.253,1.494,1.494,0,0,1,.61.661,3.455,3.455,0,0,1,.185,1.328V33.83H78.16V31.246a2.148,2.148,0,0,0-.222-1.174.781.781,0,0,0-.673-.306,1.046,1.046,0,0,0-.611.187,1.113,1.113,0,0,0-.4.517,3.1,3.1,0,0,0-.13,1.06v2.3h-1.31V31.363a3.366,3.366,0,0,0-.1-.992.878.878,0,0,0-.314-.455.833.833,0,0,0-.5-.15,1.019,1.019,0,0,0-.6.189,1.157,1.157,0,0,0-.4.533,3.179,3.179,0,0,0-.133,1.077V33.83H71.442Z" fill="#fff"/>
            <path id="Path_55" data-name="Path 55" d="M84.563,28.729h1.306v5.1H84.563v-.537a2.531,2.531,0,0,1-.771.513,2.191,2.191,0,0,1-.839.158A2.352,2.352,0,0,1,81.2,33.2a2.638,2.638,0,0,1-.741-1.908,2.7,2.7,0,0,1,.716-1.937,2.3,2.3,0,0,1,1.739-.756,2.328,2.328,0,0,1,.887.172,2.422,2.422,0,0,1,.762.515ZM83.18,29.766a1.342,1.342,0,0,0-1.011.422,1.662,1.662,0,0,0,.009,2.176,1.337,1.337,0,0,0,1.008.429,1.362,1.362,0,0,0,1.023-.42,1.529,1.529,0,0,0,.407-1.108,1.479,1.479,0,0,0-.407-1.085A1.376,1.376,0,0,0,83.18,29.766Z" fill="#fff"/>
            <path id="Path_56" data-name="Path 56" d="M87.351,26.85h1.306v1.879h.777v1.1h-.777v4H87.351v-4h-.67v-1.1h.67Z" fill="#fff"/>
            <path id="Path_57" data-name="Path 57" d="M90.655,26.634a.811.811,0,0,1,.59.243.824.824,0,0,1-.579,1.41.837.837,0,0,1-.843-.84.766.766,0,0,1,.245-.574A.812.812,0,0,1,90.655,26.634ZM90,28.729h1.309v5.1H90Z" fill="#fff"/>
            <path id="Path_58" data-name="Path 58" d="M94.963,28.595a2.827,2.827,0,0,1,1.394.361,2.65,2.65,0,0,1,1.02.98,2.591,2.591,0,0,1,.368,1.337,2.635,2.635,0,0,1-.371,1.354,2.6,2.6,0,0,1-1,.982,2.831,2.831,0,0,1-1.4.355,2.652,2.652,0,0,1-1.924-.781,2.661,2.661,0,0,1,.1-3.893A2.677,2.677,0,0,1,94.963,28.595Zm.024,1.2a1.368,1.368,0,0,0-1.024.418,1.455,1.455,0,0,0-.408,1.063,1.481,1.481,0,0,0,.4,1.082,1.365,1.365,0,0,0,1.025.416,1.386,1.386,0,0,0,1.03-.419,1.619,1.619,0,0,0,.007-2.148A1.387,1.387,0,0,0,94.987,29.8Z" fill="#fff"/>
            <path id="Path_59" data-name="Path 59" d="M98.8,28.729h1.308v.521a3.166,3.166,0,0,1,.811-.511,2.01,2.01,0,0,1,.745-.144,1.82,1.82,0,0,1,1.324.531,1.785,1.785,0,0,1,.457,1.33V33.83h-1.295V31.595a5.417,5.417,0,0,0-.086-1.215.822.822,0,0,0-.295-.457.831.831,0,0,0-.518-.157.984.984,0,0,0-.688.26,1.388,1.388,0,0,0-.4.721,5.66,5.66,0,0,0-.058,1.034V33.83H98.8Z" fill="#fff"/>
          </g>
        </g>
      </g>
    </g>
  </g>
</svg>
