<svg xmlns="http://www.w3.org/2000/svg" width="5.113" height="5.434" viewBox="0 0 5.113 5.434">
  <g id="Group_24" data-name="Group 24" transform="translate(-38.585 -234.134)">
    <g id="Group_23" data-name="Group 23">
      <path id="Path_60" data-name="Path 60" d="M42.078,238.788a2.492,2.492,0,0,1-.285.107,2.746,2.746,0,0,0,.264-.275l-.051-.4a2.372,2.372,0,0,1-.725.71v-1.085a2.288,2.288,0,0,1,.7.153l-.037-.294a2.611,2.611,0,0,0-.66-.124v-.754h1.173a2.851,2.851,0,0,1-.1.624l.233.192a3.1,3.1,0,0,0,.143-.816h.7A2.274,2.274,0,0,1,43.024,238l.2.168a2.548,2.548,0,0,0-.194-3.19l0,0-.094-.093a2.535,2.535,0,0,0-1.529-.729H41.4c-.035,0-.07-.006-.106-.008l-.024,0h-.044q-.087-.008-.177-.009a.136.136,0,0,0-.053.011h-.009c-.036,0-.071,0-.106.008h-.013a2.541,2.541,0,0,0-1.53.729l-.094.093,0,0a2.549,2.549,0,0,0,0,3.432l0,0,.094.094a2.539,2.539,0,0,0,1.53.728l.013,0,.106.008H41a.145.145,0,0,0,.051.011h0q.09,0,.177-.009h.044l.024,0,.106-.008.013,0a2.527,2.527,0,0,0,.7-.176Zm1.352-2.223h-.7a3.058,3.058,0,0,0-.26-1.124,2.547,2.547,0,0,0,.372-.277A2.285,2.285,0,0,1,43.43,236.565Zm-.774-1.587a2.261,2.261,0,0,1-.3.226,2.769,2.769,0,0,0-.561-.705A2.3,2.3,0,0,1,42.656,234.978Zm-1.375-.517a2.409,2.409,0,0,1,.828.876,2.277,2.277,0,0,1-.828.209Zm0,1.349a2.536,2.536,0,0,0,.946-.236,2.789,2.789,0,0,1,.227.991H41.281Zm-.792-1.311a2.769,2.769,0,0,0-.561.705,2.423,2.423,0,0,1-.3-.226A2.3,2.3,0,0,1,40.489,234.5Zm-1.051.665a2.6,2.6,0,0,0,.372.276,3.1,3.1,0,0,0-.26,1.125h-.7A2.289,2.289,0,0,1,39.438,235.164Zm-.585,1.665h.7a3.089,3.089,0,0,0,.26,1.124,2.6,2.6,0,0,0-.372.277A2.289,2.289,0,0,1,38.853,236.829Zm.773,1.586a2.32,2.32,0,0,1,.3-.225,2.747,2.747,0,0,0,.561.7A2.289,2.289,0,0,1,39.626,238.415Zm1.376.518a2.412,2.412,0,0,1-.829-.876,2.282,2.282,0,0,1,.829-.209Zm0-1.35a2.557,2.557,0,0,0-.947.237,2.81,2.81,0,0,1-.226-.991H41Zm0-1.018H39.829a2.816,2.816,0,0,1,.226-.992,2.518,2.518,0,0,0,.947.237Zm0-1.019a2.282,2.282,0,0,1-.829-.209,2.4,2.4,0,0,1,.829-.876Z" fill="#fff"/>
    </g>
    <path id="Path_61" data-name="Path 61" d="M43.387,238.53l-1.3-1.071.212,1.671.383-.211.358.648.323-.178L43,238.742Z" fill="#fff"/>
  </g>
</svg>
