<svg xmlns="http://www.w3.org/2000/svg" xmlns:xlink="http://www.w3.org/1999/xlink" width="153" height="243" viewBox="0 0 153 243">
  <defs>
    <clipPath id="clip-Back">
      <rect width="153" height="243"/>
    </clipPath>
  </defs>
  <g id="Back" clip-path="url(#clip-Back)">
    <rect width="153" height="243" fill="#fff"/>
    <g id="front" transform="translate(-184)">
      <g id="Group_1" data-name="Group 1">
        <path id="Path_1" data-name="Path 1" d="M191,28V44l-.04-.04L184,37V21l6.76,6.76.2.2Z" fill="#000977"/>
        <path id="Path_2" data-name="Path 2" d="M191,48V61.36l-7-7V41l6.96,6.96Z" fill="#4f90cd"/>
        <path id="Path_3" data-name="Path 3" d="M191,61.36V72l-.04-.04L184,65V54.36Z" fill="#376ab2"/>
        <path id="Path_4" data-name="Path 4" d="M191,71.36V82l-.04-.04L184,75V64.36Z" fill="#376ab2"/>
        <path id="Path_5" data-name="Path 5" d="M191,78.36V89l-.04-.04L184,82V71.36Z" fill="#376ab2"/>
        <path id="Path_6" data-name="Path 6" d="M191,86.36V97l-.04-.04L184,90V79.36Z" fill="#376ab2"/>
        <path id="Path_7" data-name="Path 7" d="M191,44v5l-.04-.04L184,42V37l6.96,6.96Z" fill="#4183c0"/>
      </g>
      <g id="Group_2" data-name="Group 2">
        <path id="Path_8" data-name="Path 8" d="M337,21V37l-6.96,6.96L330,44V28l.04-.04.2-.2Z" fill="#000977"/>
        <path id="Path_9" data-name="Path 9" d="M337,41V54.36l-7,7V48l.04-.04Z" fill="#4f90cd"/>
        <path id="Path_10" data-name="Path 10" d="M337,54.36V65l-6.96,6.96L330,72V61.36Z" fill="#376ab2"/>
        <path id="Path_11" data-name="Path 11" d="M337,64.36V75l-6.96,6.96L330,82V71.36Z" fill="#376ab2"/>
        <path id="Path_12" data-name="Path 12" d="M337,71.36V82l-6.96,6.96L330,89V78.36Z" fill="#376ab2"/>
        <path id="Path_13" data-name="Path 13" d="M337,79.36V90l-6.96,6.96L330,97V86.36Z" fill="#376ab2"/>
        <path id="Path_14" data-name="Path 14" d="M337,37v5l-6.96,6.96L330,49V44l.04-.04Z" fill="#4183c0"/>
      </g>
      <g id="Group_6" data-name="Group 6">
        <rect id="Rectangle_1" data-name="Rectangle 1" width="153" height="13" transform="translate(184 230)" fill="#000b8c"/>
      </g>
    </g>
  </g>
</svg>
