<svg xmlns="http://www.w3.org/2000/svg" xmlns:xlink="http://www.w3.org/1999/xlink" width="153" height="243" viewBox="0 0 153 243">
  <defs>
    <clipPath id="clip-Front">
      <rect width="153" height="243"/>
    </clipPath>
  </defs>
  <g id="Front" clip-path="url(#clip-Front)">
    <rect width="153" height="243" fill="#fff"/>
    <rect id="Rectangle_3" data-name="Rectangle 3" width="153" height="13" transform="translate(0 230)" fill="#000b8c"/>
    <g id="Group_11" data-name="Group 11">
      <path id="Path_17" data-name="Path 17" d="M7,28V170l-.04-.04L0,163V21l6.76,6.76.2.2Z" fill="#000b8c"/>
      <path id="Path_18" data-name="Path 18" d="M18,39V55L7,44l-.04-.04L0,37V21l6.76,6.76.2.2L7,28Z" fill="#000977"/>
      <path id="Path_19" data-name="Path 19" d="M17.81,59.81l-6.18,6.18L7,61.36V49Z" fill="#98c4e6"/>
      <path id="Path_20" data-name="Path 20" d="M7,48V61.36l-7-7V41l6.96,6.96Z" fill="#4f90cd"/>
      <path id="Path_21" data-name="Path 21" d="M11.63,65.99,7,70.61V61.36Z" fill="#84b0de"/>
      <path id="Path_22" data-name="Path 22" d="M7,61.36V72l-.04-.04L0,65V54.36Z" fill="#376ab2"/>
      <path id="Path_23" data-name="Path 23" d="M18,55v4.61l-.19.2L7,49V44Z" fill="#4183c0"/>
      <path id="Path_24" data-name="Path 24" d="M7,44v5l-.04-.04L0,42V37l6.96,6.96Z" fill="#4183c0"/>
      <path id="Path_25" data-name="Path 25" d="M7,155v15l-.04-.04L0,163V148l6.96,6.96Z" fill="#2d5a97"/>
      <path id="Path_26" data-name="Path 26" d="M7,165v5l-.04-.04L0,163v-5l6.96,6.96Z" fill="#5896ca"/>
      <path id="Path_27" data-name="Path 27" d="M7,170v12l-.04-.04L0,175V163l6.96,6.96Z" fill="#619fd4"/>
      <path id="Path_28" data-name="Path 28" d="M7,182v61H0V175l6.96,6.96Z" fill="#000b8c"/>
    </g>
    <g id="Group_31" data-name="Group 31">
      <path id="Path_29" data-name="Path 29" d="M153,21V163l-6.96,6.96L146,170V28l.04-.04.2-.2Z" fill="#000b8c"/>
      <path id="Path_30" data-name="Path 30" d="M153,21V37l-6.96,6.96L146,44,135,55V39l11-11,.04-.04.2-.2Z" fill="#000977"/>
      <path id="Path_31" data-name="Path 31" d="M135.19,59.81l6.18,6.18L146,61.36V49Z" fill="#98c4e6"/>
      <path id="Path_32" data-name="Path 32" d="M153,41V54.36l-7,7V48l.04-.04Z" fill="#4f90cd"/>
      <path id="Path_33" data-name="Path 33" d="M141.37,65.99,146,70.61V61.36Z" fill="#84b0de"/>
      <path id="Path_34" data-name="Path 34" d="M153,54.36V65l-6.96,6.96L146,72V61.36Z" fill="#376ab2"/>
      <path id="Path_35" data-name="Path 35" d="M135,55v4.61l.19.2L146,49V44Z" fill="#4183c0"/>
      <path id="Path_36" data-name="Path 36" d="M153,37v5l-6.96,6.96L146,49V44l.04-.04Z" fill="#4183c0"/>
      <path id="Path_37" data-name="Path 37" d="M153,148v15l-6.96,6.96L146,170V155l.04-.04Z" fill="#2d5a97"/>
      <path id="Path_38" data-name="Path 38" d="M153,158v5l-6.96,6.96L146,170v-5l.04-.04Z" fill="#5896ca"/>
      <path id="Path_39" data-name="Path 39" d="M153,163v12l-6.96,6.96L146,182V170l.04-.04Z" fill="#619fd4"/>
      <path id="Path_40" data-name="Path 40" d="M153,175v68h-7V182l.04-.04Z" fill="#000b8c"/>
    </g>
  </g>
</svg>
