<svg width="30" height="31" viewBox="0 0 30 31" fill="none" xmlns="http://www.w3.org/2000/svg">
<path fill-rule="evenodd" clip-rule="evenodd" d="M26.5125 10.374V20.5627C26.5125 24.3377 24.15 27.0002 20.375 27.0002H9.5625C5.7875 27.0002 3.4375 24.3377 3.4375 20.5627V10.374C3.4375 6.59899 5.8 3.93774 9.5625 3.93774H20.375C24.15 3.93774 26.5125 6.59899 26.5125 10.374Z" stroke="#130F26" stroke-width="1.5" stroke-linecap="round" stroke-linejoin="round"/>
<path d="M6.60156 21.0386L8.51156 19.0224C9.17531 18.3186 10.2816 18.2849 10.9866 18.9474C11.0078 18.9686 12.1578 20.1374 12.1578 20.1374C12.8516 20.8436 13.9853 20.8549 14.6916 20.1624C14.7378 20.1174 17.6091 16.6349 17.6091 16.6349C18.3491 15.7361 19.6778 15.6074 20.5778 16.3486C20.6378 16.3986 23.3503 19.1824 23.3503 19.1824" stroke="#130F26" stroke-width="1.5" stroke-linecap="round" stroke-linejoin="round"/>
<path fill-rule="evenodd" clip-rule="evenodd" d="M12.8909 11.9164C12.8909 13.1276 11.9096 14.1089 10.6984 14.1089C9.48711 14.1089 8.50586 13.1276 8.50586 11.9164C8.50586 10.7051 9.48711 9.72386 10.6984 9.72386C11.9096 9.72511 12.8909 10.7051 12.8909 11.9164Z" stroke="#130F26" stroke-width="1.5" stroke-linecap="round" stroke-linejoin="round"/>
</svg>
