<svg width="24" height="24" viewBox="0 0 24 24" fill="none" xmlns="http://www.w3.org/2000/svg">
<path d="M18 6.00006C17.8125 5.81259 17.5581 5.70728 17.293 5.70728C17.0278 5.70728 16.7735 5.81259 16.586 6.00006L12 10.5861L7.41398 6.00006C7.22645 5.81259 6.97214 5.70728 6.70698 5.70728C6.44181 5.70728 6.18751 5.81259 5.99998 6.00006C5.81251 6.18759 5.70719 6.4419 5.70719 6.70706C5.70719 6.97223 5.81251 7.22653 5.99998 7.41406L10.586 12.0001L5.99998 16.5861C5.81251 16.7736 5.70719 17.0279 5.70719 17.2931C5.70719 17.5582 5.81251 17.8125 5.99998 18.0001C6.18751 18.1875 6.44181 18.2928 6.70698 18.2928C6.97214 18.2928 7.22645 18.1875 7.41398 18.0001L12 13.4141L16.586 18.0001C16.7735 18.1875 17.0278 18.2928 17.293 18.2928C17.5581 18.2928 17.8125 18.1875 18 18.0001C18.1875 17.8125 18.2928 17.5582 18.2928 17.2931C18.2928 17.0279 18.1875 16.7736 18 16.5861L13.414 12.0001L18 7.41406C18.1875 7.22653 18.2928 6.97223 18.2928 6.70706C18.2928 6.4419 18.1875 6.18759 18 6.00006Z" fill="#E01E1E"/>
</svg>
