<svg width="20" height="20" viewBox="0 0 20 20" fill="none" xmlns="http://www.w3.org/2000/svg">
<rect width="20" height="20" rx="2" fill="#0DB14B"/>
<mask id="mask0_501_8786" style="mask-type:alpha" maskUnits="userSpaceOnUse" x="3" y="4" width="14" height="12">
<path d="M7.32897 13.229L4.4373 10.3373C4.28161 10.1813 4.07024 10.0936 3.8498 10.0936C3.62937 10.0936 3.418 10.1813 3.2623 10.3373C2.9373 10.6623 2.9373 11.1873 3.2623 11.5123L6.74564 14.9957C7.07064 15.3207 7.59564 15.3207 7.92064 14.9957L16.7373 6.17899C17.0623 5.85399 17.0623 5.32899 16.7373 5.00399C16.5816 4.84795 16.3702 4.76025 16.1498 4.76025C15.9294 4.76025 15.718 4.84795 15.5623 5.00399L7.32897 13.229Z" fill="black"/>
</mask>
<g mask="url(#mask0_501_8786)">
<rect width="20" height="20" fill="white"/>
</g>
</svg>
